<svg xmlns="http://www.w3.org/2000/svg" viewBox="0 0 48 48"><defs><style>.cls-1{fill:#fff}</style></defs><g id="Layer_2" data-name="Layer 2"><g id="_1" data-name="1"><path class="cls-1" d="M0 46h48v2H0zM40 36H28a1 1 0 0 1-1-1V11a1 1 0 0 1 1-1h12a1 1 0 0 1 1 1v24a1 1 0 0 1-1 1zm-11-2h10V12H29z"/><path class="cls-1" d="M20 48H4a1 1 0 0 1-1-1V19a1 1 0 0 1 1-1h16a1 1 0 0 1 1 1v28a1 1 0 0 1-1 1zM5 46h14V20H5z"/><path class="cls-1" d="M45 47h-2V36H28a1 1 0 0 1-1-1V2H9v17H7V1a1 1 0 0 1 1-1h20a1 1 0 0 1 1 1v33h15a1 1 0 0 1 1 1z"/><path class="cls-1" d="M23 18h2v2h-2zM23 22h2v2h-2zM23 26h2v2h-2zM23 6h2v2h-2zM23 10h2v2h-2zM19 6h2v2h-2zM15 10h6v2h-6zM19 14h6v2h-6zM15 14h2v2h-2zM11 6h6v2h-6zM11 10h2v2h-2zM11 14h2v2h-2zM15 22h2v2h-2zM15 26h2v2h-2zM15 30h2v2h-2zM11 26h2v2h-2zM7 22h6v2H7zM7 26h2v2H7zM7 30h6v2H7zM15 34h2v2h-2zM15 38h2v2h-2zM15 42h2v2h-2zM11 34h2v2h-2zM11 42h2v2h-2zM7 34h2v2H7zM7 38h6v2H7zM7 42h2v2H7zM23 30h2v2h-2zM23 34h2v2h-2zM23 38h2v2h-2zM27 38h6v2h-6zM35 38h2v2h-2zM31 30h2v2h-2zM35 30h2v2h-2zM31 26h6v2h-6zM31 22h2v2h-2zM35 22h2v2h-2zM31 18h6v2h-6zM31 14h2v2h-2zM35 14h2v2h-2zM39 38h2v2h-2zM23 42h6v2h-6zM31 42h2v2h-2zM35 42h2v2h-2zM39 42h2v2h-2zM28 10h14v2H28zM6 0h24v2H6zM2 18h18v2H2z"/></g></g></svg>
